<svg width="52" height="42" viewBox="0 0 52 42" fill="none" xmlns="http://www.w3.org/2000/svg">
<path d="M26.0039 42C31.7727 41.9993 37.3775 40.449 41.9357 37.5931C46.494 34.7373 49.7469 30.7381 51.1823 26.2252C52.6177 21.7123 52.1541 16.9419 49.8644 12.6652C47.5748 8.38845 43.5892 4.8482 38.5351 2.60179C33.4809 0.355385 27.6453 -0.469589 21.947 0.256751C16.2487 0.98309 11.0112 3.21949 7.05926 6.61386C3.10727 10.0082 0.665191 14.3678 0.117481 19.0062C-0.43023 23.6446 0.947537 28.2984 4.03388 32.235L0.00387863 42L12.0939 38.745C16.2525 40.8771 21.0782 42.0063 26.0039 42Z" fill="#FE834D"/>
<ellipse cx="14.811" cy="20.5648" rx="3" ry="4" transform="rotate(-12.7887 14.811 20.5648)" fill="white"/>
<ellipse cx="25.811" cy="20.5648" rx="3" ry="4" transform="rotate(-12.7887 25.811 20.5648)" fill="white"/>
<ellipse cx="36.811" cy="20.5648" rx="3" ry="4" transform="rotate(-12.7887 36.811 20.5648)" fill="white"/>
</svg>
