<svg width="64" height="64" viewBox="0 0 64 64" fill="none" xmlns="http://www.w3.org/2000/svg">
<g id="Frame 822">
<path id="Vector" d="M56 16.0811V40.7297C56 41.5469 55.5746 42.3306 54.8175 42.9084C54.0603 43.4862 53.0334 43.8108 51.9626 43.8108H15.1209L8.66178 50.2605C7.93501 50.7306 6.99009 51.0014 6.03744 51C5.44513 50.9992 4.86026 50.8993 4.32405 50.7073C3.62659 50.462 3.0365 50.0686 2.62435 49.5741C2.21219 49.0796 1.99543 48.505 2 47.9189L3.51331 38.1622V16.0811C3.51331 15.2639 3.93868 14.4802 4.69585 13.9024C5.45301 13.3246 6.47995 13 7.55075 13H51.9626C53.0334 13 54.0603 13.3246 54.8175 13.9024C55.5746 14.4802 56 15.2639 56 16.0811Z" fill="#FE834D"/>
</g>
</svg>
