<svg width="20" height="16" viewBox="0 0 20 16" fill="none" xmlns="http://www.w3.org/2000/svg">
<path id="Vector" fill-rule="evenodd" clip-rule="evenodd" d="M10 0C13.4892 0 16.6779 2.19333 19.5715 6.576C19.8514 7.00233 20 7.49633 20 8.00067C20 8.505 19.8514 8.999 19.5715 9.42533C16.6779 13.808 13.4892 16 10 16C6.51077 16 3.32211 13.808 0.428497 9.42533C0.14858 8.999 0 8.505 0 8.00067C0 7.49633 0.14858 7.00233 0.428497 6.576C3.3235 2.19333 6.51077 0 10 0ZM10 5.33333C9.26526 5.33333 8.56062 5.61428 8.04108 6.11438C7.52154 6.61448 7.22967 7.29276 7.22967 8C7.22967 8.70724 7.52154 9.38552 8.04108 9.88562C8.56062 10.3857 9.26526 10.6667 10 10.6667C10.7347 10.6667 11.4394 10.3857 11.9589 9.88562C12.4785 9.38552 12.7703 8.70724 12.7703 8C12.7703 7.29276 12.4785 6.61448 11.9589 6.11438C11.4394 5.61428 10.7347 5.33333 10 5.33333Z" fill="#C5C5C5"/>
</svg>
