<svg width="20" height="20" viewBox="0 0 20 20" fill="none" xmlns="http://www.w3.org/2000/svg">
<g id="image">
<mask id="mask0_723_8190" style="mask-type:luminance" maskUnits="userSpaceOnUse" x="0" y="1" width="19" height="18">
<g id="b">
<path id="Vector" d="M12.2689 1.56055C13.1527 1.56055 14.0279 1.72439 14.8445 2.04273C15.6611 2.36107 16.403 2.82766 17.028 3.41587C17.653 4.00408 18.1487 4.70239 18.487 5.47092C18.8252 6.23946 18.9993 7.06317 18.9993 7.89502V9.62699C18.9996 10.7789 18.6663 11.9091 18.0352 12.896C17.4041 13.883 16.499 14.6893 15.4174 15.2283V17.6566C15.4172 17.803 15.3767 17.9468 15.2998 18.0741C15.223 18.2014 15.1124 18.3078 14.9789 18.3829C14.8454 18.458 14.6935 18.4993 14.538 18.5027C14.3825 18.5062 14.2287 18.4716 14.0916 18.4025L13.9957 18.3466L10.4368 15.9615H7.72843C5.94342 15.9615 4.23152 15.2941 2.96933 14.1061C1.70714 12.9182 0.998047 11.307 0.998047 9.62699L0.998047 7.89502C0.998047 6.21501 1.70714 4.60382 2.96933 3.41587C4.23152 2.22793 5.94342 1.56055 7.72843 1.56055L12.2689 1.56055ZM5.72349 7.91408C5.42503 7.91408 5.1388 8.02567 4.92776 8.22429C4.71672 8.42292 4.59816 8.69232 4.59816 8.97321C4.59816 9.25411 4.71672 9.52351 4.92776 9.72214C5.1388 9.92076 5.42503 10.0323 5.72349 10.0323C6.02194 10.0323 6.30818 9.92076 6.51922 9.72214C6.73026 9.52351 6.84882 9.25411 6.84882 8.97321C6.84882 8.69232 6.73026 8.42292 6.51922 8.22429C6.30818 8.02567 6.02194 7.91408 5.72349 7.91408ZM9.77387 7.91408C9.47541 7.91408 9.18918 8.02567 8.97814 8.22429C8.7671 8.42292 8.64854 8.69232 8.64854 8.97321C8.64854 9.25411 8.7671 9.52351 8.97814 9.72214C9.18918 9.92076 9.47541 10.0323 9.77387 10.0323C10.0723 10.0323 10.3586 9.92076 10.5696 9.72214C10.7806 9.52351 10.8992 9.25411 10.8992 8.97321C10.8992 8.69232 10.7806 8.42292 10.5696 8.22429C10.3586 8.02567 10.0723 7.91408 9.77387 7.91408ZM13.8242 7.91408C13.5258 7.91408 13.2396 8.02567 13.0285 8.22429C12.8175 8.42292 12.6989 8.69232 12.6989 8.97321C12.6989 9.25411 12.8175 9.52351 13.0285 9.72214C13.2396 9.92076 13.5258 10.0323 13.8242 10.0323C14.1227 10.0323 14.4089 9.92076 14.62 9.72214C14.831 9.52351 14.9496 9.25411 14.9496 8.97321C14.9496 8.69232 14.831 8.42292 14.62 8.22429C14.4089 8.02567 14.1227 7.91408 13.8242 7.91408Z" fill="white"/>
</g>
</mask>
<g mask="url(#mask0_723_8190)">
<g id="Group">
<path id="Vector_2" d="M-0.00195312 0.619141H19.9993V19.4452H-0.00195312V0.619141Z" fill="#C5C5C5"/>
</g>
</g>
</g>
</svg>
