<svg width="12" height="10" viewBox="0 0 12 10" fill="none" xmlns="http://www.w3.org/2000/svg">
<g id="&#235;&#176;&#156;&#236;&#158;&#144;&#234;&#181;&#173;&#236;&#149;&#132;&#236;&#157;&#180;&#236;&#189;&#152;">
<path id="Union" fill-rule="evenodd" clip-rule="evenodd" d="M5.66262 1.91919C5.66262 2.85939 5.09098 3.62158 4.38582 3.62158C3.68067 3.62158 3.10903 2.85939 3.10903 1.91919C3.10903 0.978983 3.68067 0.216797 4.38582 0.216797C5.09098 0.216797 5.66262 0.978983 5.66262 1.91919ZM6.01728 4.2673C8.81517 4.2673 10.8019 7.4132 10.0923 9.42053C9.90746 9.94325 9.42956 9.73497 8.69676 9.4156C8.01436 9.11819 7.11092 8.72445 6.01728 8.73499C4.97131 8.74506 4.10229 9.13631 3.43164 9.43826C2.66487 9.78347 2.15741 10.0119 1.94127 9.42053C1.12616 7.19016 3.21939 4.2673 6.01728 4.2673ZM7.61434 3.62158C8.31949 3.62158 8.89113 2.85939 8.89113 1.91919C8.89113 0.978983 8.31949 0.216797 7.61434 0.216797C6.90919 0.216797 6.33755 0.978983 6.33755 1.91919C6.33755 2.85939 6.90919 3.62158 7.61434 3.62158ZM2.59484 3.20156C3.09467 3.79724 3.12261 4.59669 2.65723 4.98718C2.19186 5.37768 1.4094 5.21135 0.909568 4.61567C0.409734 4.01999 0.381799 3.22054 0.847173 2.83004C1.31255 2.43954 2.095 2.60588 2.59484 3.20156ZM9.34278 4.9872C9.80815 5.3777 10.5906 5.21136 11.0904 4.61568C11.5903 4.02 11.6182 3.22055 11.1528 2.83006C10.6875 2.43956 9.90501 2.60589 9.40517 3.20157C8.90534 3.79725 8.8774 4.5967 9.34278 4.9872Z" fill="#F87B45"/>
</g>
</svg>
