<svg width="1236" height="182" viewBox="0 0 1236 182" fill="none" xmlns="http://www.w3.org/2000/svg">
<g clip-path="url(#clip0_1113_12297)">
<path d="M327 52.0176C327 49.1457 328.235 46.4125 330.39 44.514L341.39 34.8236C345.168 31.495 350.832 31.495 354.61 34.8236L365.61 44.514C367.765 46.4125 369 49.1457 369 52.0176V106C369 111.523 364.523 116 359 116H337C331.477 116 327 111.523 327 106V52.0176Z" fill="#FE905F"/>
<path d="M417 52.0176C417 49.1457 418.235 46.4125 420.39 44.514L431.39 34.8236C435.168 31.495 440.832 31.495 444.61 34.8236L455.61 44.514C457.765 46.4125 459 49.1457 459 52.0176V106C459 111.523 454.523 116 449 116H427C421.477 116 417 111.523 417 106V52.0176Z" fill="#FE905F"/>
<path opacity="0.9" d="M1203 86H54V96H1203V86Z" fill="#FE8F5F"/>
<path d="M147 52.0176C147 49.1457 148.235 46.4125 150.39 44.514L161.39 34.8236C165.168 31.495 170.832 31.495 174.61 34.8236L185.61 44.514C187.765 46.4125 189 49.1457 189 52.0176V106C189 111.523 184.523 116 179 116H157C151.477 116 147 111.523 147 106V52.0176Z" fill="#FE905F"/>
<path d="M237 52.0176C237 49.1457 238.235 46.4125 240.39 44.514L251.39 34.8236C255.168 31.495 260.832 31.495 264.61 34.8236L275.61 44.514C277.765 46.4125 279 49.1457 279 52.0176V106C279 111.523 274.523 116 269 116H247C241.477 116 237 111.523 237 106V52.0176Z" fill="#FE905F"/>
<path d="M507 52.0176C507 49.1457 508.235 46.4125 510.39 44.514L521.39 34.8236C525.168 31.495 530.832 31.495 534.61 34.8236L545.61 44.514C547.765 46.4125 549 49.1457 549 52.0176V106C549 111.523 544.523 116 539 116H517C511.477 116 507 111.523 507 106V52.0176Z" fill="#FE905F"/>
<path d="M597 52.0176C597 49.1457 598.235 46.4125 600.39 44.514L611.39 34.8236C615.168 31.495 620.832 31.495 624.61 34.8236L635.61 44.514C637.765 46.4125 639 49.1457 639 52.0176V106C639 111.523 634.523 116 629 116H607C601.477 116 597 111.523 597 106V52.0176Z" fill="#FE905F"/>
<path d="M687 52.0176C687 49.1457 688.235 46.4125 690.39 44.514L701.39 34.8236C705.168 31.495 710.832 31.495 714.61 34.8236L725.61 44.514C727.765 46.4125 729 49.1457 729 52.0176V106C729 111.523 724.523 116 719 116H697C691.477 116 687 111.523 687 106V52.0176Z" fill="#FE905F"/>
<path d="M777 52.0176C777 49.1457 778.235 46.4125 780.39 44.514L791.39 34.8236C795.168 31.495 800.832 31.495 804.61 34.8236L815.61 44.514C817.765 46.4125 819 49.1457 819 52.0176V106C819 111.523 814.523 116 809 116H787C781.477 116 777 111.523 777 106V52.0176Z" fill="#FE905F"/>
<path d="M867 52.0176C867 49.1457 868.235 46.4125 870.39 44.514L881.39 34.8236C885.168 31.495 890.832 31.495 894.61 34.8236L905.61 44.514C907.765 46.4125 909 49.1457 909 52.0176V106C909 111.523 904.523 116 899 116H877C871.477 116 867 111.523 867 106V52.0176Z" fill="#FE905F"/>
<path d="M957 52.0176C957 49.1457 958.235 46.4125 960.39 44.514L971.39 34.8236C975.168 31.495 980.832 31.495 984.61 34.8236L995.61 44.514C997.765 46.4125 999 49.1457 999 52.0176V106C999 111.523 994.523 116 989 116H967C961.477 116 957 111.523 957 106V52.0176Z" fill="#FE905F"/>
<path d="M1047 52.0176C1047 49.1457 1048.23 46.4125 1050.39 44.514L1061.39 34.8236C1065.17 31.495 1070.83 31.495 1074.61 34.8236L1085.61 44.514C1087.77 46.4125 1089 49.1457 1089 52.0176V106C1089 111.523 1084.52 116 1079 116H1057C1051.48 116 1047 111.523 1047 106V52.0176Z" fill="#FE905F"/>
<path d="M1236 0H1089V182H1236V0Z" fill="url(#paint0_linear_1113_12297)"/>
<path d="M0 0H147V182H0V0Z" fill="url(#paint1_linear_1113_12297)"/>
<path d="M995.215 80.3698C973.216 83.8702 977.715 104.37 977.715 104.37C977.715 104.37 966.215 89.8698 955.215 101.87C944.216 113.87 955.212 132.87 982.715 131.87C1010.22 130.87 1015.21 130.37 1015.21 130.37C1025.21 129.37 1036.71 125.87 1035.22 113.87C1033.72 101.87 1022.22 104.37 1022.22 104.37C1022.22 104.37 1025.72 95.3702 1019.72 94.8698C1013.71 94.3695 1011.22 99.3698 1011.22 99.3698C1011.22 99.3698 1017.21 76.8695 995.215 80.3698Z" fill="#44A077"/>
<path d="M241.133 98.5586C233.633 106.061 241.13 127.557 247.633 128.557C247.633 128.557 271 131.666 301.133 127.557C312.133 126.057 318.633 107.057 313.133 100.557C307.633 94.0566 293.131 108.058 293.131 108.058C293.131 108.058 302.633 92.057 294.133 89.5566C285.633 87.0563 278.631 103.558 278.631 103.558C278.631 103.558 286.633 74.5559 268.633 76.0563C250.633 77.5566 257.631 109.058 257.631 109.058C257.631 109.058 248.633 91.0566 241.133 98.5586Z" fill="#337B5D"/>
<path d="M921.453 97.2127C913.187 105.597 921.449 129.623 928.617 130.74C928.617 130.74 954.37 134.215 987.579 129.623C999.702 127.946 1006.87 106.711 1000.8 99.4459C994.743 92.1811 978.76 107.83 978.76 107.83C978.76 107.83 989.232 89.9462 979.864 87.1517C970.497 84.3572 962.78 102.801 962.78 102.801C962.78 102.801 971.599 70.386 951.761 72.0629C931.923 73.7397 939.635 108.948 939.635 108.948C939.635 108.948 929.718 88.8282 921.453 97.2127Z" fill="#337B5D"/>
<path d="M240.133 80.3698C262.133 83.8702 257.633 104.37 257.633 104.37C257.633 104.37 269.134 89.8698 280.133 101.87C291.133 113.87 280.136 132.87 252.634 131.87C225.132 130.87 220.134 130.37 220.134 130.37C210.134 129.37 198.634 125.87 200.133 113.87C201.633 101.87 213.133 104.37 213.133 104.37C213.133 104.37 209.633 95.3702 215.633 94.8698C221.634 94.3695 224.133 99.3698 224.133 99.3698C224.133 99.3698 218.134 76.8695 240.133 80.3698Z" fill="#44A077"/>
<path d="M510.169 96.2422C524.514 98.535 521.58 111.962 521.58 111.962C521.58 111.962 529.079 102.465 536.251 110.325C543.423 118.185 536.253 130.63 518.32 129.975C500.387 129.32 497.128 128.993 497.128 128.993C490.607 128.338 483.109 126.045 484.086 118.185C485.064 110.325 492.563 111.962 492.563 111.962C492.563 111.962 490.281 106.068 494.193 105.74C498.106 105.412 499.736 108.687 499.736 108.687C499.736 108.687 495.824 93.9495 510.169 96.2422Z" fill="#44A077"/>
<path d="M537.169 96.2422C551.514 98.535 548.58 111.962 548.58 111.962C548.58 111.962 556.079 102.465 563.251 110.325C570.423 118.185 563.253 130.63 545.32 129.975C527.387 129.32 524.128 128.993 524.128 128.993C517.607 128.338 510.109 126.045 511.086 118.185C512.064 110.325 519.563 111.962 519.563 111.962C519.563 111.962 517.281 106.068 521.193 105.74C525.106 105.412 526.736 108.687 526.736 108.687C526.736 108.687 522.824 93.9495 537.169 96.2422Z" fill="#44A077"/>
</g>
<defs>
<linearGradient id="paint0_linear_1113_12297" x1="1236" y1="91" x2="1089" y2="91" gradientUnits="userSpaceOnUse">
<stop offset="0.345" stop-color="white"/>
<stop offset="1" stop-color="white" stop-opacity="0"/>
</linearGradient>
<linearGradient id="paint1_linear_1113_12297" x1="0" y1="91" x2="147" y2="91" gradientUnits="userSpaceOnUse">
<stop offset="0.345" stop-color="white"/>
<stop offset="1" stop-color="white" stop-opacity="0"/>
</linearGradient>
<clipPath id="clip0_1113_12297">
<rect width="1236" height="182" fill="white"/>
</clipPath>
</defs>
</svg>
