<svg width="64" height="64" viewBox="0 0 64 64" fill="none" xmlns="http://www.w3.org/2000/svg">
<g id="Frame 821">
<path id="Vector" d="M39 54L19.25 54C18.1228 54 17.0418 53.5364 16.2448 52.7113C15.4478 51.8861 15 50.767 15 49.6L15 14.4C15 13.233 15.4478 12.1139 16.2448 11.2887C17.0418 10.4636 18.1228 10 19.25 10L44.75 10C45.8772 10 46.9582 10.4636 47.7552 11.2887C48.5522 12.1139 49 13.233 49 14.4L49 43.5L39 54ZM44.75 14.4L19.25 14.4L19.25 49.6L37.025 49.6L37.025 41.5L44.75 41.5L44.75 14.4Z" fill="#FE834D"/>
<rect id="Rectangle 5397" x="22" y="20" width="20" height="2" fill="#FE834D"/>
<rect id="Rectangle 5398" x="22" y="25" width="20" height="2" fill="#FE834D"/>
<rect id="Rectangle 5399" x="22" y="30" width="20" height="2" fill="#FE834D"/>
</g>
</svg>
