<svg width="64" height="64" viewBox="0 0 64 64" fill="none" xmlns="http://www.w3.org/2000/svg">
<g id="Frame 672">
<circle id="Ellipse 52" cx="32" cy="15" r="6" stroke="#FE834D" stroke-width="2"/>
<circle id="Ellipse 53" cx="48" cy="24" r="4" fill="#FE834D"/>
<circle id="Ellipse 54" cx="16" cy="24" r="4" fill="#FE834D"/>
<path id="Rectangle 176" d="M18.5 37C18.5 30.0964 24.0964 24.5 31 24.5H33C39.9036 24.5 45.5 30.0964 45.5 37V56.5H18.5V37Z" fill="#FE834D" stroke="#FE834D"/>
<path id="Rectangle 177" d="M39 40C39 35.0294 43.0294 31 48 31C52.9706 31 57 35.0294 57 40V56H39V40Z" stroke="#FE834D" stroke-width="2"/>
<path id="Rectangle 178" d="M7 40C7 35.0294 11.0294 31 16 31C20.9706 31 25 35.0294 25 40V56H7V40Z" stroke="#FE834D" stroke-width="2"/>
</g>
</svg>
