<svg width="26" height="40" viewBox="0 0 26 40" fill="none" xmlns="http://www.w3.org/2000/svg">
<path d="M12.9425 26.6286C11.677 26.6286 10.6799 26.2095 9.95133 25.3714C9.26106 24.4952 8.91593 23.4095 8.91593 22.1143C8.91593 19.9048 9.43363 18.2667 10.469 17.2C10.7758 16.8571 11.2743 16.381 11.9646 15.7714C12.6932 15.0857 13.2109 14.5524 13.5177 14.1714C13.8245 13.7905 13.9779 13.3714 13.9779 12.9143C13.9779 11.9238 13.4602 11.4286 12.4248 11.4286C11.9646 11.4286 11.5619 11.581 11.2168 11.8857C10.91 12.1905 10.7566 12.5714 10.7566 13.0286C10.7566 14.2857 10.2198 15.3333 9.14602 16.1714C8.11062 16.9714 6.80678 17.3714 5.23451 17.3714C3.66224 17.3714 2.39675 16.819 1.43805 15.7143C0.479351 14.5714 0 12.9905 0 10.9714C0 9.29524 0.556047 7.6 1.66814 5.88572C2.78024 4.17143 4.33333 2.76191 6.32743 1.65715C8.32153 0.552382 10.5649 0 13.0575 0C15.5885 0 17.8319 0.533333 19.7876 1.6C21.7434 2.62857 23.2581 4 24.3319 5.71429C25.444 7.42857 26 9.2381 26 11.1429C26 13.0857 25.6357 14.7238 24.9071 16.0571C24.2168 17.3524 23.3923 18.3619 22.4336 19.0857C21.5133 19.7714 20.4204 20.419 19.1549 21.0286C18.4263 21.4095 17.9086 21.7143 17.6018 21.9429C17.295 22.1714 17.1416 22.419 17.1416 22.6857C17.1416 23.6762 16.7581 24.5905 15.9911 25.4286C15.2625 26.2286 14.2463 26.6286 12.9425 26.6286ZM13 28.1143C11.3894 28.1143 9.98967 28.7048 8.80088 29.8857C7.61209 31.0667 7.0177 32.4571 7.0177 34.0571C7.0177 35.6571 7.61209 37.0476 8.80088 38.2286C9.98967 39.4095 11.3894 40 13 40C14.6106 40 16.0103 39.4095 17.1991 38.2286C18.3879 37.0476 18.9823 35.6571 18.9823 34.0571C18.9823 32.4571 18.3879 31.0667 17.1991 29.8857C16.0103 28.7048 14.6106 28.1143 13 28.1143Z" fill="#FE834D"/>
</svg>
