<svg width="64" height="64" viewBox="0 0 64 64" fill="none" xmlns="http://www.w3.org/2000/svg">
<g id="Frame 823">
<path id="Vector" d="M59 13.5676V42.1081C59 43.0543 58.551 43.9617 57.7518 44.6308C56.9525 45.2998 55.8685 45.6757 54.7383 45.6757H15.8498L9.03187 53.1438C8.26473 53.688 7.26731 54.0016 6.26174 54C5.63653 53.9991 5.01917 53.8834 4.45316 53.6611C3.71696 53.3771 3.09408 52.9215 2.65903 52.3489C2.22398 51.7764 1.99518 51.111 2 50.4324L3.59738 39.1351V13.5676C3.59738 12.6214 4.04638 11.714 4.84561 11.0449C5.64485 10.3759 6.72884 10 7.85912 10H54.7383C55.8685 10 56.9525 10.3759 57.7518 11.0449C58.551 11.714 59 12.6214 59 13.5676Z" fill="#FE834D"/>
<path id="Union" fill-rule="evenodd" clip-rule="evenodd" d="M39.7071 21.6276C40.0971 21.9969 40.0971 22.6457 39.7071 23.0349L37.8674 24.8615L34.118 21.1185L35.9577 19.292C36.3477 18.9027 36.9976 18.9027 37.3675 19.292L39.7071 21.6276ZM22 35.9707V33.2258L33.0582 22.1765L36.8076 25.9195L26.7483 35.9707H39.9971V36.9707H22V36.9688V35.9707Z" fill="#FFFDF2"/>
</g>
</svg>
