<svg width="64" height="64" viewBox="0 0 64 64" fill="none" xmlns="http://www.w3.org/2000/svg">
<g id="Frame 824">
<path id="Vector" d="M16.4444 52H47.5555C48.7343 52 49.8647 51.5317 50.6982 50.6983C51.5317 49.8648 52 48.7343 52 47.5556V23.1111C52.0017 22.8187 51.9456 22.5288 51.835 22.258C51.7244 21.9873 51.5615 21.741 51.3555 21.5334L42.4666 12.6445C42.259 12.4385 42.0127 12.2756 41.742 12.165C41.4712 12.0544 41.1813 11.9983 40.8889 12H16.4444C15.2657 12 14.1352 12.4683 13.3017 13.3018C12.4683 14.1353 12 15.2657 12 16.4445V47.5556C12 48.7343 12.4683 49.8648 13.3017 50.6983C14.1352 51.5317 15.2657 52 16.4444 52ZM38.6666 47.5556H25.3333V36.4445H38.6666V47.5556ZM34.2222 20.8889H29.7778V16.4445H34.2222V20.8889ZM16.4444 16.4445H20.8889V25.3334H38.6666V16.4445H39.9778L47.5555 24.0222V47.5556H43.1111V36.4445C43.1111 35.2657 42.6428 34.1353 41.8093 33.3018C40.9758 32.4683 39.8454 32 38.6666 32H25.3333C24.1546 32 23.0241 32.4683 22.1906 33.3018C21.3571 34.1353 20.8889 35.2657 20.8889 36.4445V47.5556H16.4444V16.4445Z" fill="#FE834D"/>
</g>
</svg>
