<svg width="14" height="14" viewBox="0 0 14 14" fill="none" xmlns="http://www.w3.org/2000/svg">
<g id="Group 26532">
<path id="Rectangle 5394" d="M2.47059 5.32951L6.55645 1.55211C7.19683 0.960067 8.2353 1.41426 8.2353 2.28639V5.51515H11.0781C12.4843 5.51515 13.4515 6.92807 12.9425 8.23899L11.2013 12.7238C10.9027 13.4931 10.1622 14 9.33691 14H1C0.447716 14 0 13.5523 0 13V6.32951C0 5.77723 0.447715 5.32951 1 5.32951H2.47059Z" fill="#C5C5C5"/>
<path id="Rectangle 5395" d="M2.57294 5.23438V13.9938L1.00316 13.9988C0.449642 14.0005 0 13.5523 0 12.9988V6.23934C0 5.68829 0.445794 5.24109 0.996844 5.23935L2.57294 5.23438Z" fill="#737373"/>
</g>
</svg>
