<svg width="14" height="14" viewBox="0 0 14 14" fill="none" xmlns="http://www.w3.org/2000/svg">
<g id="SVG">
<path id="Vector" fill-rule="evenodd" clip-rule="evenodd" d="M1.05743 3.20833C1.05743 2.64454 1.51448 2.1875 2.07827 2.1875H11.9209C12.4847 2.1875 12.9417 2.64454 12.9417 3.20833V4.52083H12.945V5.39583C11.8413 5.39583 11.0492 6.16712 11.0492 7C11.0492 7.83288 11.8413 8.60417 12.945 8.60417V9.47917H12.9417V10.7917C12.9417 11.3555 12.4847 11.8125 11.9209 11.8125H2.07827C1.51448 11.8125 1.05743 11.3555 1.05743 10.7917V9.48774H1.05469V8.61274C2.15843 8.61274 2.95052 7.84146 2.95052 7.00857C2.95052 6.17563 2.15843 5.4044 1.05469 5.4044V4.5294H1.05743V3.20833ZM5.63292 6.2118C6.11614 6.2118 6.5079 5.82005 6.5079 5.3368C6.5079 4.85355 6.11614 4.4618 5.63292 4.4618C5.14966 4.4618 4.75792 4.85355 4.75792 5.3368C4.75792 5.82005 5.14966 6.2118 5.63292 6.2118ZM8.97645 9.55535C9.45969 9.55535 9.85145 9.16358 9.85145 8.68035C9.85145 8.19706 9.45969 7.80535 8.97645 7.80535C8.49322 7.80535 8.10145 8.19706 8.10145 8.68035C8.10145 9.16358 8.49322 9.55535 8.97645 9.55535ZM5.16656 8.93194C4.9957 8.76114 4.9957 8.48412 5.16656 8.31326L8.60942 4.87036C8.78028 4.6995 9.0573 4.6995 9.22816 4.87036C9.39902 5.04121 9.39902 5.31823 9.22816 5.48908L5.78528 8.93194C5.61442 9.1028 5.33741 9.1028 5.16656 8.93194Z" fill="#FA5963"/>
</g>
</svg>
