<svg width="20" height="20" viewBox="0 0 20 20" fill="none" xmlns="http://www.w3.org/2000/svg">
<path fill-rule="evenodd" clip-rule="evenodd" d="M2.5731 8.95043C2.15272 9.59594 2.15272 10.4041 2.5731 11.0496C3.52804 12.5159 5.76989 15 9.99901 15C14.2281 15 16.47 12.5159 17.4249 11.0496C17.8453 10.4041 17.8453 9.59594 17.4249 8.95043C16.47 7.48409 14.2281 5 9.99901 5C5.76989 5 3.52805 7.48408 2.5731 8.95043ZM9.99888 12C11.1035 12 11.9989 11.1046 11.9989 10C11.9989 8.89543 11.1035 8 9.99888 8C8.89431 8 7.99888 8.89543 7.99888 10C7.99888 11.1046 8.89431 12 9.99888 12Z" fill="#C5C5C5"/>
</svg>
