<svg width="16" height="10" viewBox="0 0 16 10" fill="none" xmlns="http://www.w3.org/2000/svg">
<path id="Union" fill-rule="evenodd" clip-rule="evenodd" d="M0.669922 0.806414C1.18886 0.624784 1.75657 0.896191 1.94166 1.41293L1.9469 1.42648C1.95325 1.44247 1.96517 1.47152 1.98329 1.51178C2.01959 1.59245 2.08033 1.71716 2.1703 1.8714C2.3507 2.18065 2.64491 2.60231 3.08993 3.02613C3.96135 3.85606 5.46704 4.75027 8.00027 4.75027C10.5335 4.75027 12.0392 3.85606 12.9106 3.02613C13.3556 2.60231 13.6498 2.18065 13.8302 1.8714C13.9202 1.71716 13.981 1.59245 14.0173 1.51178C14.0354 1.47152 14.0473 1.44247 14.0536 1.42648L14.0589 1.41292C14.244 0.896189 14.8117 0.624785 15.3306 0.806414C15.8519 0.988862 16.1266 1.55934 15.9441 2.08062L15.0003 1.75027C15.9441 2.08062 15.9439 2.08121 15.9437 2.08182L15.9433 2.08311L15.9422 2.08597L15.9398 2.09282L15.9332 2.11088C15.928 2.12484 15.9212 2.1426 15.9127 2.16391C15.8958 2.20652 15.8722 2.2634 15.8411 2.33251C15.779 2.4706 15.6866 2.65839 15.5578 2.87914C15.3007 3.31989 14.8949 3.89823 14.2899 4.47441C14.0842 4.6703 13.8571 4.86438 13.6071 5.05177L14.4913 6.5833C14.7674 7.0616 14.6036 7.67319 14.1253 7.94933C13.647 8.22547 13.0354 8.0616 12.7592 7.5833L11.8669 6.03777C11.0586 6.37167 10.1092 6.61646 9.00027 6.70933V8.25027C9.00027 8.80256 8.55256 9.25027 8.00027 9.25027C7.44799 9.25027 7.00027 8.80256 7.00027 8.25027V6.70933C5.85606 6.61351 4.88172 6.35595 4.05694 6.00565L3.14608 7.5833C2.86994 8.0616 2.25835 8.22547 1.78006 7.94933C1.30177 7.67319 1.13789 7.0616 1.41403 6.5833L2.32725 5.00157C2.10317 4.82981 1.89799 4.65286 1.71062 4.47441C1.10563 3.89823 0.699847 3.31989 0.442744 2.87914C0.313968 2.65839 0.221584 2.4706 0.159445 2.33251C0.128344 2.2634 0.10472 2.20652 0.0878211 2.16391C0.0793683 2.1426 0.072588 2.12484 0.0673871 2.11088L0.0607547 2.09282L0.0583025 2.08597L0.0572884 2.08311L0.0568339 2.08182C0.0566211 2.08121 0.0564141 2.08062 1.00027 1.75027L0.0564141 2.08062C-0.126033 1.55934 0.148643 0.988862 0.669922 0.806414Z" fill="#C5C5C5"/>
</svg>
