<svg width="725" height="20" viewBox="0 0 725 20" fill="none" xmlns="http://www.w3.org/2000/svg">
<path d="M3 10H683" stroke="#D9D9D9" stroke-width="5" stroke-linecap="round"/>
<path d="M3 10H343" stroke="#FE834D" stroke-width="5" stroke-linecap="round"/>
<path d="M698.752 16.196C697.128 16.196 696.106 15.538 695.364 14.81L696.148 13.76C696.722 14.348 697.478 14.866 698.556 14.866C699.718 14.866 700.586 14.04 700.586 12.668C700.586 11.31 699.802 10.526 698.626 10.526C697.982 10.526 697.59 10.708 696.988 11.1L696.19 10.596L696.498 5.696H701.734V7.068H697.912L697.674 9.7C698.108 9.476 698.528 9.35 699.088 9.35C700.81 9.35 702.224 10.358 702.224 12.626C702.224 14.894 700.544 16.196 698.752 16.196ZM706.974 16.196C704.944 16.196 703.642 14.39 703.642 10.806C703.642 7.25 704.944 5.514 706.974 5.514C708.99 5.514 710.306 7.25 710.306 10.806C710.306 14.39 708.99 16.196 706.974 16.196ZM706.974 14.908C708.024 14.908 708.752 13.788 708.752 10.806C708.752 7.866 708.024 6.774 706.974 6.774C705.924 6.774 705.182 7.866 705.182 10.806C705.182 13.788 705.924 14.908 706.974 14.908ZM713.881 12.024C712.439 12.024 711.459 10.82 711.459 8.748C711.459 6.69 712.439 5.514 713.881 5.514C715.323 5.514 716.303 6.69 716.303 8.748C716.303 10.82 715.323 12.024 713.881 12.024ZM713.881 11.072C714.595 11.072 715.113 10.33 715.113 8.748C715.113 7.166 714.595 6.452 713.881 6.452C713.153 6.452 712.635 7.166 712.635 8.748C712.635 10.33 713.153 11.072 713.881 11.072ZM714.189 16.196L719.845 5.514H720.867L715.211 16.196H714.189ZM721.203 16.196C719.761 16.196 718.781 15.006 718.781 12.92C718.781 10.862 719.761 9.672 721.203 9.672C722.631 9.672 723.611 10.862 723.611 12.92C723.611 15.006 722.631 16.196 721.203 16.196ZM721.203 15.244C721.917 15.244 722.435 14.502 722.435 12.92C722.435 11.324 721.917 10.638 721.203 10.638C720.475 10.638 719.957 11.324 719.957 12.92C719.957 14.502 720.475 15.244 721.203 15.244Z" fill="#FE834D"/>
</svg>
