<svg width="725" height="20" viewBox="0 0 725 20" fill="none" xmlns="http://www.w3.org/2000/svg">
<path d="M3 10H683" stroke="#D9D9D9" stroke-width="5" stroke-linecap="round"/>
<path d="M3 10H173" stroke="#FE834D" stroke-width="5" stroke-linecap="round"/>
<path d="M695.602 16V15.062C698.654 12.374 700.208 10.372 700.208 8.678C700.208 7.572 699.62 6.802 698.472 6.802C697.66 6.802 696.988 7.306 696.442 7.936L695.518 7.054C696.414 6.088 697.324 5.514 698.668 5.514C700.558 5.514 701.776 6.732 701.776 8.608C701.776 10.582 700.18 12.64 697.996 14.74C698.528 14.684 699.186 14.628 699.69 14.628H702.266V16H695.602ZM706.736 16.196C705.112 16.196 704.09 15.538 703.348 14.81L704.132 13.76C704.706 14.348 705.462 14.866 706.54 14.866C707.702 14.866 708.57 14.04 708.57 12.668C708.57 11.31 707.786 10.526 706.61 10.526C705.966 10.526 705.574 10.708 704.972 11.1L704.174 10.596L704.482 5.696H709.718V7.068H705.896L705.658 9.7C706.092 9.476 706.512 9.35 707.072 9.35C708.794 9.35 710.208 10.358 710.208 12.626C710.208 14.894 708.528 16.196 706.736 16.196ZM713.881 12.024C712.439 12.024 711.459 10.82 711.459 8.748C711.459 6.69 712.439 5.514 713.881 5.514C715.323 5.514 716.303 6.69 716.303 8.748C716.303 10.82 715.323 12.024 713.881 12.024ZM713.881 11.072C714.595 11.072 715.113 10.33 715.113 8.748C715.113 7.166 714.595 6.452 713.881 6.452C713.153 6.452 712.635 7.166 712.635 8.748C712.635 10.33 713.153 11.072 713.881 11.072ZM714.189 16.196L719.845 5.514H720.867L715.211 16.196H714.189ZM721.203 16.196C719.761 16.196 718.781 15.006 718.781 12.92C718.781 10.862 719.761 9.672 721.203 9.672C722.631 9.672 723.611 10.862 723.611 12.92C723.611 15.006 722.631 16.196 721.203 16.196ZM721.203 15.244C721.917 15.244 722.435 14.502 722.435 12.92C722.435 11.324 721.917 10.638 721.203 10.638C720.475 10.638 719.957 11.324 719.957 12.92C719.957 14.502 720.475 15.244 721.203 15.244Z" fill="#FE834D"/>
</svg>
