<svg width="733" height="20" viewBox="0 0 733 20" fill="none" xmlns="http://www.w3.org/2000/svg">
<path d="M3 10H683" stroke="#D9D9D9" stroke-width="5" stroke-linecap="round"/>
<path d="M3 10H683" stroke="#FE834D" stroke-width="5" stroke-linecap="round"/>
<path d="M696.19 16V14.67H698.458V7.502H696.596V6.48C697.576 6.312 698.248 6.06 698.85 5.696H700.068V14.67H702.084V16H696.19ZM706.974 16.196C704.944 16.196 703.642 14.39 703.642 10.806C703.642 7.25 704.944 5.514 706.974 5.514C708.99 5.514 710.306 7.25 710.306 10.806C710.306 14.39 708.99 16.196 706.974 16.196ZM706.974 14.908C708.024 14.908 708.752 13.788 708.752 10.806C708.752 7.866 708.024 6.774 706.974 6.774C705.924 6.774 705.182 7.866 705.182 10.806C705.182 13.788 705.924 14.908 706.974 14.908ZM714.959 16.196C712.929 16.196 711.627 14.39 711.627 10.806C711.627 7.25 712.929 5.514 714.959 5.514C716.975 5.514 718.291 7.25 718.291 10.806C718.291 14.39 716.975 16.196 714.959 16.196ZM714.959 14.908C716.009 14.908 716.737 13.788 716.737 10.806C716.737 7.866 716.009 6.774 714.959 6.774C713.909 6.774 713.167 7.866 713.167 10.806C713.167 13.788 713.909 14.908 714.959 14.908ZM721.865 12.024C720.423 12.024 719.443 10.82 719.443 8.748C719.443 6.69 720.423 5.514 721.865 5.514C723.307 5.514 724.287 6.69 724.287 8.748C724.287 10.82 723.307 12.024 721.865 12.024ZM721.865 11.072C722.579 11.072 723.097 10.33 723.097 8.748C723.097 7.166 722.579 6.452 721.865 6.452C721.137 6.452 720.619 7.166 720.619 8.748C720.619 10.33 721.137 11.072 721.865 11.072ZM722.173 16.196L727.829 5.514H728.851L723.195 16.196H722.173ZM729.187 16.196C727.745 16.196 726.765 15.006 726.765 12.92C726.765 10.862 727.745 9.672 729.187 9.672C730.615 9.672 731.595 10.862 731.595 12.92C731.595 15.006 730.615 16.196 729.187 16.196ZM729.187 15.244C729.901 15.244 730.419 14.502 730.419 12.92C730.419 11.324 729.901 10.638 729.187 10.638C728.459 10.638 727.941 11.324 727.941 12.92C727.941 14.502 728.459 15.244 729.187 15.244Z" fill="#FE834D"/>
</svg>
