<svg xmlns="http://www.w3.org/2000/svg" width="28" height="42" viewBox="0 0 28 42" fill="none">
  <path d="M3.70766 40.935C3.65463 41.0049 3.59281 41.0689 3.52065 41.1187C1.98329 42.1814 0 40.9007 0 38.7861V5.31655C0 4.03912 0.421427 2.81401 1.17157 1.91073C1.92172 1.00745 2.93913 0.5 4 0.5H24C25.0609 0.5 26.0783 1.00745 26.8284 1.91073C27.5786 2.81401 28 4.03912 28 5.31655V38.7861C28 40.9007 26.0167 42.1814 24.4793 41.1187C24.4072 41.0689 24.3454 41.0049 24.2923 40.935L16.164 30.225C15.5186 29.7251 14.7674 29.4593 14 29.4593C13.2326 29.4593 12.4814 29.7251 11.836 30.225L3.70766 40.935Z" fill="#FE834D"/>
</svg>