<svg xmlns="http://www.w3.org/2000/svg" width="8" height="16" viewBox="0 0 8 16" fill="none">
  <path fill-rule="evenodd" clip-rule="evenodd" d="M4 6.37378C5.35503 6.37378 6.45349 5.27531 6.45349 3.92029C6.45349 2.56526 5.35503 1.4668 4 1.4668C2.64497 1.4668 1.54651 2.56526 1.54651 3.92029C1.54651 5.27531 2.64497 6.37378 4 6.37378ZM7.45349 3.92029C7.45349 5.65779 6.17037 7.0956 4.5 7.33785V11.8887H7.5V12.8887H4.5V15.5332H3.5V12.8887H0.5V11.8887H3.5V7.33785C1.82963 7.0956 0.546509 5.65779 0.546509 3.92029C0.546509 2.01298 2.09269 0.466797 4 0.466797C5.90731 0.466797 7.45349 2.01298 7.45349 3.92029Z" fill="#D86480"/>
</svg>