<svg xmlns="http://www.w3.org/2000/svg" width="1920" height="66" fill="none">
<path fill="#F7F7F7" fill-rule="evenodd" d="M666.396 13.012a8.6 8.6 0 1 1-16.61 4.465 8.6 8.6 0 0 1 16.61-4.465Zm-26.889 10.17a7.805 7.805 0 1 1 4.052 15.075 7.803 7.803 0 0 1-9.563-5.513 7.804 7.804 0 0 1 5.511-9.563Zm32.483.928a7.805 7.805 0 1 1 15.075-4.051 7.805 7.805 0 0 1-15.075 4.051Zm.243 6.596c1.063.555 2.005 1.104 2.703 1.609l.648.465.005.004c3.018 2.16 6.774 4.85 8.325 10.706 1.441 5.443-1.796 11.058-7.215 12.515a10.11 10.11 0 0 1-4.61.16c-2.299-.454-5.121.303-6.882 1.85a10.116 10.116 0 0 1-4.068 2.172c-5.421 1.458-11.038-1.778-12.52-7.21-1.594-5.846.308-10.057 1.837-13.44l.001-.003.328-.727c.486-1.095 1.337-2.496 2.323-3.962 1.619-3.015 4.42-5.387 7.986-6.346 4.008-1.077 8.075-.127 11.139 2.207ZM-4.604 13.012a8.6 8.6 0 1 1-16.611 4.465 8.6 8.6 0 0 1 16.61-4.465Zm-26.89 10.17a7.806 7.806 0 1 1 4.054 15.076 7.806 7.806 0 0 1-4.053-15.077ZM.99 24.11a7.805 7.805 0 1 1 15.075-4.05A7.805 7.805 0 0 1 .99 24.11Zm.243 6.596c1.063.555 2.005 1.104 2.703 1.609l.648.465.005.004c3.018 2.16 6.774 4.85 8.326 10.706 1.44 5.443-1.797 11.058-7.216 12.515a10.11 10.11 0 0 1-4.61.16c-2.3-.454-5.12.303-6.882 1.85a10.113 10.113 0 0 1-4.068 2.172c-5.421 1.458-11.038-1.778-12.52-7.21-1.594-5.846.308-10.057 1.837-13.44l.001-.003.328-.727c.486-1.095 1.337-2.496 2.323-3.962 1.62-3.015 4.42-5.387 7.986-6.346 4.008-1.077 8.075-.127 11.14 2.207ZM1368.4 13.012a8.604 8.604 0 0 1-16.62 4.465 8.605 8.605 0 0 1 16.62-4.465Zm-26.89 10.17a7.806 7.806 0 0 1 4.05 15.075 7.802 7.802 0 0 1-9.56-5.513 7.797 7.797 0 0 1 5.51-9.563Zm32.48.928a7.805 7.805 0 0 1 5.51-9.563c4.16-1.119 8.45 1.35 9.56 5.511a7.796 7.796 0 0 1-5.51 9.563 7.801 7.801 0 0 1-9.56-5.51Zm.24 6.596c1.07.555 2.01 1.104 2.71 1.609l.64.465.01.004c3.02 2.16 6.77 4.85 8.32 10.706 1.45 5.443-1.79 11.058-7.21 12.515-1.5.408-3.08.463-4.61.16-2.3-.454-5.12.303-6.88 1.85a10.15 10.15 0 0 1-4.07 2.172c-5.42 1.458-11.04-1.778-12.52-7.21-1.59-5.846.31-10.057 1.84-13.44v-.003l.32-.727c.49-1.095 1.34-2.496 2.33-3.962 1.62-3.015 4.42-5.387 7.98-6.346 4.01-1.077 8.08-.127 11.14 2.207ZM1037.66 48.252a8.6 8.6 0 0 1 10.41-6.287 8.595 8.595 0 0 1 6.29 10.412 8.6 8.6 0 0 1-10.41 6.287c-4.61-1.14-7.43-5.8-6.29-10.412Zm28.46 4.103a7.807 7.807 0 0 1-5.71-9.449c1.03-4.187 5.26-6.74 9.45-5.706a7.793 7.793 0 0 1 5.7 9.45 7.796 7.796 0 0 1-9.44 5.705Zm-27.99-16.522a7.797 7.797 0 0 1-9.44 5.705 7.807 7.807 0 0 1-5.71-9.449c1.03-4.187 5.26-6.738 9.45-5.705 4.18 1.034 6.74 5.262 5.7 9.449Zm2.98-5.891c-.66-1-1.22-1.936-1.59-2.715l-.34-.72V26.5c-1.6-3.351-3.58-7.52-2.11-13.397 1.37-5.461 6.92-8.81 12.37-7.465a10.11 10.11 0 0 1 4.11 2.089c1.79 1.51 4.63 2.212 6.92 1.71 1.52-.334 3.1-.311 4.61.066 5.45 1.346 8.8 6.895 7.47 12.365-1.43 5.889-5.13 8.654-8.11 10.877v.002l-.64.477c-.95.723-2.38 1.538-3.95 2.344a12.81 12.81 0 0 1-10.06 1.693c-4.03-.995-7.13-3.794-8.68-7.32ZM366.663 48.252a8.6 8.6 0 1 1 16.699 4.126 8.6 8.6 0 0 1-16.699-4.126Zm28.453 4.103a7.806 7.806 0 1 1 3.745-15.156 7.806 7.806 0 0 1-3.745 15.156Zm-27.982-16.522a7.804 7.804 0 0 1-9.448 5.705 7.804 7.804 0 1 1 3.743-15.154 7.803 7.803 0 0 1 5.705 9.449Zm2.977-5.891c-.662-1-1.222-1.936-1.588-2.715l-.342-.72-.003-.007c-1.596-3.351-3.583-7.52-2.109-13.397 1.371-5.461 6.92-8.81 12.368-7.465a10.115 10.115 0 0 1 4.113 2.089c1.793 1.51 4.628 2.212 6.918 1.71 1.522-.334 3.1-.311 4.612.066 5.449 1.346 8.801 6.895 7.471 12.365-1.433 5.889-5.134 8.654-8.108 10.877l-.003.002-.638.477c-.955.723-2.377 1.538-3.95 2.344-2.875 1.857-6.473 2.578-10.059 1.693-4.028-.995-7.129-3.794-8.682-7.32ZM1739.66 48.252a8.6 8.6 0 0 1 10.41-6.287 8.595 8.595 0 0 1 6.29 10.412 8.6 8.6 0 0 1-10.41 6.287c-4.61-1.14-7.43-5.8-6.29-10.412Zm28.46 4.103a7.807 7.807 0 0 1-5.71-9.449c1.03-4.187 5.26-6.74 9.45-5.706a7.793 7.793 0 0 1 5.7 9.45 7.796 7.796 0 0 1-9.44 5.705Zm-27.99-16.522a7.797 7.797 0 0 1-9.44 5.705 7.807 7.807 0 0 1-5.71-9.449c1.03-4.187 5.26-6.738 9.45-5.705 4.18 1.034 6.74 5.262 5.7 9.449Zm2.98-5.891c-.66-1-1.22-1.936-1.59-2.715l-.34-.72V26.5c-1.6-3.351-3.58-7.52-2.11-13.397 1.37-5.461 6.92-8.81 12.37-7.465a10.11 10.11 0 0 1 4.11 2.089c1.79 1.51 4.63 2.212 6.92 1.71 1.52-.334 3.1-.311 4.61.066 5.45 1.346 8.8 6.895 7.47 12.365-1.43 5.889-5.13 8.654-8.11 10.877v.002l-.64.477c-.95.723-2.38 1.538-3.95 2.344a12.81 12.81 0 0 1-10.06 1.693c-4.03-.995-7.13-3.794-8.68-7.32ZM1110.06 31.16a4.254 4.254 0 1 1 8.43-1.153 4.254 4.254 0 1 1-8.43 1.154Zm13.83-3.311a3.862 3.862 0 1 1-1.04-7.653 3.862 3.862 0 1 1 1.04 7.653Zm-15.88-2.485a3.862 3.862 0 1 1-7.652 1.048 3.862 3.862 0 0 1 7.652-1.048Zm.29-3.253c-.49-.339-.91-.667-1.23-.958l-.28-.269-.01-.002c-1.34-1.25-3.02-2.804-3.41-5.776-.37-2.761 1.57-5.315 4.32-5.692a4.993 4.993 0 0 1 2.27.21c1.1.366 2.53.17 3.5-.479.63-.431 1.36-.709 2.13-.812 2.75-.377 5.3 1.563 5.69 4.321.42 2.97-.78 4.917-1.74 6.483v.001l-.21.336c-.3.507-.81 1.142-1.38 1.8a6.366 6.366 0 0 1-4.32 2.616 6.358 6.358 0 0 1-5.33-1.779ZM439.06 31.16a4.255 4.255 0 1 1 8.431-1.154 4.255 4.255 0 0 1-8.431 1.155Zm13.835-3.311a3.862 3.862 0 1 1-1.049-7.654 3.862 3.862 0 0 1 1.049 7.654Zm-15.886-2.485a3.862 3.862 0 1 1-7.654 1.046 3.862 3.862 0 0 1 7.654-1.046Zm.292-3.253a11.313 11.313 0 0 1-1.226-.958l-.289-.269-.003-.002c-1.346-1.25-3.021-2.804-3.417-5.776-.368-2.761 1.572-5.315 4.323-5.692a5.004 5.004 0 0 1 2.273.21c1.1.366 2.532.17 3.493-.479a5.006 5.006 0 0 1 2.133-.812c2.752-.377 5.307 1.563 5.695 4.321.417 2.97-.78 4.917-1.741 6.483l-.001.001-.206.336c-.307.507-.812 1.142-1.388 1.8a6.35 6.35 0 0 1-9.646.837ZM1812.06 31.16a4.254 4.254 0 1 1 8.43-1.153 4.254 4.254 0 1 1-8.43 1.154Zm13.83-3.311a3.862 3.862 0 1 1-1.04-7.653 3.862 3.862 0 1 1 1.04 7.653Zm-15.88-2.485a3.862 3.862 0 1 1-7.652 1.048 3.862 3.862 0 0 1 7.652-1.048Zm.29-3.253c-.49-.339-.91-.667-1.23-.958l-.28-.269-.01-.002c-1.34-1.25-3.02-2.804-3.41-5.776-.37-2.761 1.57-5.315 4.32-5.692a4.993 4.993 0 0 1 2.27.21c1.1.366 2.53.17 3.5-.479.63-.431 1.36-.709 2.13-.812 2.75-.377 5.3 1.563 5.69 4.321.42 2.97-.78 4.917-1.74 6.483v.001l-.21.336c-.3.507-.81 1.142-1.38 1.8a6.366 6.366 0 0 1-4.32 2.616 6.358 6.358 0 0 1-5.33-1.779ZM1195.46 22.763a4.253 4.253 0 1 1-8.11 2.566 4.253 4.253 0 1 1 8.11-2.566Zm-13.07 5.61a3.87 3.87 0 0 1 4.85 2.516 3.865 3.865 0 0 1-7.37 2.33 3.869 3.869 0 0 1 2.52-4.847Zm16.08-.245a3.855 3.855 0 0 1 2.51-4.847 3.861 3.861 0 0 1 4.85 2.518 3.86 3.86 0 0 1-2.52 4.846 3.854 3.854 0 0 1-4.84-2.517Zm.26 3.255c.54.252 1.01.502 1.37.737l.33.216v.002c1.54 1.002 3.46 2.25 4.35 5.112.83 2.66-.65 5.505-3.29 6.342a5.03 5.03 0 0 1-2.28.18c-1.15-.175-2.53.26-3.36 1.063a5.02 5.02 0 0 1-1.97 1.162c-2.64.838-5.49-.64-6.34-3.293-.92-2.856-.07-4.978.62-6.684v-.002l.14-.366c.22-.552.61-1.262 1.07-2.009a6.306 6.306 0 0 1 3.81-3.31 6.349 6.349 0 0 1 5.55.85ZM524.462 22.763a4.255 4.255 0 1 1-8.114 2.567 4.255 4.255 0 0 1 8.114-2.567Zm-13.073 5.61a3.862 3.862 0 1 1 2.33 7.363 3.862 3.862 0 0 1-2.33-7.364Zm16.077-.245a3.862 3.862 0 1 1 7.365-2.329 3.862 3.862 0 0 1-7.365 2.329Zm.264 3.255a11.36 11.36 0 0 1 1.371.737l.33.216.003.002c1.538 1.002 3.453 2.25 4.347 5.112.83 2.66-.649 5.505-3.296 6.342a5 5 0 0 1-2.275.18c-1.147-.175-2.525.26-3.362 1.063a5.011 5.011 0 0 1-1.964 1.162c-2.649.838-5.495-.64-6.345-3.293-.915-2.856-.066-4.978.617-6.684v-.002l.146-.366c.217-.552.607-1.262 1.063-2.009a6.351 6.351 0 0 1 9.365-2.46ZM1897.46 22.763a4.253 4.253 0 1 1-8.11 2.566 4.253 4.253 0 1 1 8.11-2.566Zm-13.07 5.61a3.87 3.87 0 0 1 4.85 2.516 3.865 3.865 0 0 1-7.37 2.33 3.869 3.869 0 0 1 2.52-4.847Zm16.08-.245a3.855 3.855 0 0 1 2.51-4.847 3.861 3.861 0 0 1 4.85 2.518 3.86 3.86 0 0 1-2.52 4.846 3.854 3.854 0 0 1-4.84-2.517Zm.26 3.255c.54.252 1.01.502 1.37.737l.33.216v.002c1.54 1.002 3.46 2.25 4.35 5.112.83 2.66-.65 5.505-3.29 6.342a5.03 5.03 0 0 1-2.28.18c-1.15-.175-2.53.26-3.36 1.063a5.02 5.02 0 0 1-1.97 1.162c-2.64.838-5.49-.64-6.34-3.293-.92-2.856-.07-4.978.62-6.684v-.002l.14-.366c.22-.552.61-1.262 1.07-2.009a6.306 6.306 0 0 1 3.81-3.31 6.349 6.349 0 0 1 5.55.85ZM1250.01 27.794a4.846 4.846 0 0 1-5.71 3.789 4.834 4.834 0 0 1-3.78-5.701c.52-2.621 3.08-4.318 5.7-3.79a4.848 4.848 0 0 1 3.79 5.702Zm-16.1-1.614a4.393 4.393 0 0 1 3.43 5.174 4.392 4.392 0 1 1-8.61-1.736 4.399 4.399 0 0 1 5.18-3.438Zm16.13 8.608a4.399 4.399 0 0 1 5.18-3.438 4.4 4.4 0 0 1 3.44 5.174 4.397 4.397 0 0 1-8.62-1.736Zm-1.53 3.386c.4.546.74 1.058.96 1.488l.21.396v.004c.98 1.845 2.2 4.142 1.52 7.482-.64 3.104-3.68 5.123-6.78 4.499a5.65 5.65 0 0 1-2.36-1.074c-1.05-.806-2.66-1.131-3.93-.793-.85.224-1.74.25-2.6.075-3.09-.624-5.11-3.662-4.5-6.77.66-3.347 2.68-4.992 4.29-6.315h.01l.34-.285c.52-.43 1.3-.922 2.17-1.414a7.198 7.198 0 0 1 5.61-1.197c2.29.461 4.1 1.96 5.06 3.904ZM738.634 35.65a3.885 3.885 0 1 1-7.655-1.331 3.885 3.885 0 0 1 7.655 1.332Zm-12.953-.952a3.527 3.527 0 1 1-1.211 6.949 3.527 3.527 0 0 1 1.211-6.95Zm13.131 6.565a3.527 3.527 0 1 1 6.95 1.212 3.527 3.527 0 0 1-6.95-1.212Zm-1.156 2.749c.33.43.612.834.802 1.173l.176.314.002.003c.825 1.46 1.852 3.277 1.372 5.972-.446 2.504-2.841 4.188-5.339 3.754a4.572 4.572 0 0 1-1.919-.812c-.856-.624-2.156-.851-3.172-.553a4.57 4.57 0 0 1-2.081.115c-2.498-.435-4.183-2.83-3.756-5.337.46-2.7 2.041-4.062 3.311-5.158h.002l.272-.236c.408-.356 1.023-.768 1.706-1.18a5.798 5.798 0 0 1 8.624 1.946ZM67.635 35.65a3.886 3.886 0 1 1-7.657-1.333 3.886 3.886 0 0 1 7.657 1.334Zm-12.954-.952a3.527 3.527 0 1 1-1.21 6.948 3.527 3.527 0 0 1 1.21-6.948Zm13.132 6.565a3.526 3.526 0 1 1 6.948 1.21 3.526 3.526 0 0 1-6.948-1.21Zm-1.157 2.749c.33.43.612.834.802 1.173l.176.314.002.003c.825 1.46 1.852 3.277 1.372 5.972-.446 2.504-2.841 4.188-5.339 3.754a4.569 4.569 0 0 1-1.92-.812c-.855-.624-2.155-.851-3.171-.553a4.568 4.568 0 0 1-2.08.115c-2.5-.435-4.184-2.83-3.757-5.337.46-2.7 2.04-4.062 3.312-5.158l.273-.236c.408-.356 1.023-.768 1.706-1.18a5.8 5.8 0 0 1 8.624 1.946ZM1440.63 35.65a3.879 3.879 0 0 1-4.49 3.162 3.886 3.886 0 0 1 1.33-7.656 3.88 3.88 0 0 1 3.16 4.495Zm-12.95-.952c1.92.334 3.2 2.16 2.87 4.078a3.524 3.524 0 0 1-4.08 2.87 3.529 3.529 0 0 1-2.87-4.08 3.53 3.53 0 0 1 4.08-2.868Zm13.13 6.565a3.53 3.53 0 0 1 4.08-2.869 3.53 3.53 0 0 1 2.87 4.079 3.528 3.528 0 0 1-6.95-1.21Zm-1.15 2.749c.33.43.61.834.8 1.173l.17.314.01.003c.82 1.46 1.85 3.277 1.37 5.972-.45 2.504-2.84 4.188-5.34 3.754a4.598 4.598 0 0 1-1.92-.812c-.86-.624-2.16-.851-3.17-.553-.68.198-1.39.238-2.08.115a4.632 4.632 0 0 1-3.76-5.337c.46-2.7 2.04-4.062 3.31-5.158l.28-.236c.4-.356 1.02-.768 1.7-1.18a5.803 5.803 0 0 1 8.63 1.946ZM849.944 11.16a6.52 6.52 0 1 1-12.847-2.237 6.52 6.52 0 0 1 12.847 2.237Zm-21.736-1.6a5.917 5.917 0 1 1-2.03 11.66 5.917 5.917 0 0 1 2.03-11.66Zm22.036 11.018a5.918 5.918 0 1 1 11.66 2.033 5.918 5.918 0 0 1-11.66-2.033Zm-1.939 4.613c.553.72 1.026 1.399 1.344 1.969l.297.527.002.004c1.385 2.45 3.107 5.5 2.303 10.021-.748 4.203-4.768 7.03-8.959 6.3a7.665 7.665 0 0 1-3.221-1.363c-1.436-1.047-3.618-1.428-5.323-.928a7.666 7.666 0 0 1-3.491.194c-4.193-.73-7.021-4.75-6.304-8.957.772-4.53 3.425-6.816 5.557-8.654l.002-.002.457-.395c.685-.597 1.717-1.288 2.864-1.981a9.717 9.717 0 0 1 7.518-1.812c3.1.54 5.592 2.492 6.954 5.076ZM178.944 11.16a6.52 6.52 0 1 1-12.847-2.237 6.52 6.52 0 0 1 12.847 2.237Zm-21.736-1.6a5.917 5.917 0 1 1-2.03 11.66 5.917 5.917 0 0 1 2.03-11.66Zm22.036 11.018a5.918 5.918 0 1 1 11.66 2.033 5.918 5.918 0 0 1-11.66-2.033Zm-1.939 4.613c.553.72 1.026 1.399 1.344 1.969l.297.527.002.004c1.385 2.45 3.107 5.5 2.303 10.021-.748 4.203-4.768 7.03-8.959 6.3a7.665 7.665 0 0 1-3.221-1.363c-1.436-1.047-3.618-1.428-5.323-.928a7.666 7.666 0 0 1-3.491.194c-4.193-.73-7.021-4.75-6.304-8.957.772-4.53 3.425-6.816 5.557-8.654l.002-.002.457-.395c.685-.597 1.717-1.288 2.864-1.981a9.717 9.717 0 0 1 7.518-1.812c3.1.54 5.592 2.492 6.954 5.076ZM1551.94 11.16c-.61 3.548-3.99 5.923-7.54 5.305a6.514 6.514 0 0 1-5.3-7.542c.61-3.548 3.99-5.923 7.54-5.305a6.514 6.514 0 0 1 5.3 7.542Zm-21.73-1.6a5.915 5.915 0 0 1 4.81 6.845 5.911 5.911 0 0 1-6.84 4.815 5.921 5.921 0 0 1-4.82-6.845 5.922 5.922 0 0 1 6.85-4.814Zm22.03 11.018c.57-3.22 3.63-5.375 6.85-4.814a5.915 5.915 0 0 1 4.81 6.844 5.91 5.91 0 0 1-6.84 4.814 5.92 5.92 0 0 1-4.82-6.844Zm-1.94 4.613c.56.72 1.03 1.399 1.35 1.969l.3.527v.004c1.38 2.45 3.11 5.5 2.3 10.021-.75 4.203-4.77 7.03-8.96 6.3a7.715 7.715 0 0 1-3.22-1.363c-1.43-1.047-3.62-1.428-5.32-.928a7.67 7.67 0 0 1-3.49.194c-4.2-.73-7.02-4.75-6.31-8.957.78-4.53 3.43-6.816 5.56-8.654v-.002l.46-.395c.68-.597 1.72-1.288 2.86-1.981a9.722 9.722 0 0 1 7.52-1.812c3.1.54 5.59 2.492 6.95 5.076ZM899.04 29.84a5.317 5.317 0 1 1-10.53 1.496 5.318 5.318 0 0 1 10.53-1.495Zm-17.268 4.226a4.826 4.826 0 1 1 1.357 9.557 4.826 4.826 0 0 1-1.357-9.557Zm19.868 3.006a4.826 4.826 0 1 1 9.556-1.357 4.826 4.826 0 0 1-9.556 1.357Zm-.345 4.066c.61.42 1.148.828 1.538 1.19l.363.334.003.003c1.69 1.553 3.793 3.485 4.307 7.196.476 3.449-1.932 6.652-5.367 7.14a6.254 6.254 0 0 1-2.842-.247c-1.377-.451-3.166-.198-4.363.62a6.25 6.25 0 0 1-2.66 1.027c-3.436.488-6.641-1.919-7.143-5.364-.54-3.708.943-6.15 2.135-8.111l.001-.002.256-.422c.38-.635 1.008-1.431 1.723-2.257a7.938 7.938 0 0 1 12.049-1.106ZM228.04 29.84a5.317 5.317 0 1 1-10.53 1.496 5.318 5.318 0 0 1 10.53-1.495Zm-17.268 4.226a4.826 4.826 0 1 1 1.357 9.557 4.826 4.826 0 0 1-1.357-9.557Zm19.868 3.006a4.826 4.826 0 1 1 9.556-1.357 4.826 4.826 0 0 1-9.556 1.357Zm-.345 4.066c.61.42 1.148.828 1.538 1.19l.363.334.003.003c1.69 1.553 3.793 3.485 4.307 7.196.476 3.449-1.932 6.652-5.367 7.14a6.254 6.254 0 0 1-2.842-.247c-1.377-.451-3.166-.198-4.363.62a6.25 6.25 0 0 1-2.66 1.027c-3.436.488-6.641-1.919-7.143-5.364-.54-3.708.943-6.15 2.135-8.111l.001-.002.256-.422c.38-.635 1.008-1.431 1.723-2.257a7.938 7.938 0 0 1 12.049-1.106ZM1601.04 29.84a5.32 5.32 0 0 1-4.52 6.013 5.313 5.313 0 0 1-6.01-4.517 5.32 5.32 0 0 1 4.52-6.013 5.313 5.313 0 0 1 6.01 4.518Zm-17.27 4.226a4.832 4.832 0 0 1 5.46 4.1 4.829 4.829 0 0 1-9.56 1.356 4.829 4.829 0 0 1 4.1-5.456Zm19.87 3.006a4.829 4.829 0 0 1 9.56-1.357 4.835 4.835 0 0 1-4.1 5.456 4.825 4.825 0 0 1-5.46-4.1Zm-.35 4.066c.62.42 1.15.828 1.54 1.19l.37.334v.003c1.69 1.553 3.79 3.485 4.31 7.196.47 3.449-1.94 6.652-5.37 7.14-.95.138-1.93.053-2.84-.247-1.38-.451-3.17-.198-4.37.62-.79.542-1.7.894-2.66 1.027-3.43.488-6.64-1.919-7.14-5.364-.54-3.708.94-6.15 2.14-8.111v-.002l.25-.422c.38-.635 1.01-1.431 1.73-2.257a7.911 7.911 0 0 1 5.37-3.296c2.54-.361 4.97.527 6.67 2.19ZM938.955 11.616a3.999 3.999 0 1 1-7.898-1.26 3.999 3.999 0 0 1 7.898 1.26Zm-13.342-.791a3.63 3.63 0 1 1-1.144 7.167 3.63 3.63 0 0 1 1.144-7.167Zm13.609 6.564a3.63 3.63 0 1 1 7.169 1.145 3.63 3.63 0 0 1-7.169-1.145Zm-1.149 2.845c.345.438.641.85.841 1.196l.187.32.002.003c.87 1.49 1.953 3.346 1.499 6.126-.422 2.583-2.863 4.352-5.439 3.94a4.697 4.697 0 0 1-1.987-.807c-.89-.63-2.231-.844-3.272-.522a4.706 4.706 0 0 1-2.14.15c-2.577-.412-4.346-2.852-3.944-5.439.435-2.784 2.041-4.21 3.333-5.355l.001-.001.277-.246c.415-.373 1.042-.806 1.739-1.24a5.968 5.968 0 0 1 8.903 1.876ZM267.955 11.616a3.999 3.999 0 1 1-7.898-1.26 3.999 3.999 0 0 1 7.898 1.26Zm-13.342-.791a3.63 3.63 0 1 1-1.144 7.167 3.63 3.63 0 0 1 1.144-7.167Zm13.609 6.564a3.63 3.63 0 1 1 7.169 1.145 3.63 3.63 0 0 1-7.169-1.145Zm-1.149 2.845c.345.438.641.85.841 1.196l.187.32.002.003c.87 1.49 1.953 3.346 1.499 6.126-.422 2.583-2.863 4.352-5.439 3.94a4.697 4.697 0 0 1-1.987-.807c-.89-.63-2.231-.844-3.272-.522a4.706 4.706 0 0 1-2.14.15c-2.577-.412-4.346-2.852-3.944-5.439.435-2.784 2.041-4.21 3.333-5.355l.001-.001.277-.246c.415-.373 1.042-.806 1.739-1.24a5.968 5.968 0 0 1 8.903 1.876ZM1640.96 11.616a3.999 3.999 0 1 1-7.902-1.26 3.999 3.999 0 0 1 7.902 1.26Zm-13.35-.791a3.639 3.639 0 0 1 3.02 4.155 3.635 3.635 0 0 1-4.16 3.012 3.624 3.624 0 0 1-3.01-4.156 3.62 3.62 0 0 1 4.15-3.011Zm13.61 6.564a3.635 3.635 0 0 1 4.16-3.012 3.624 3.624 0 0 1 3.01 4.155 3.634 3.634 0 0 1-4.16 3.012 3.638 3.638 0 0 1-3.01-4.155Zm-1.15 2.845c.35.438.64.85.84 1.196l.19.32v.003c.87 1.49 1.96 3.346 1.5 6.126-.42 2.583-2.86 4.352-5.44 3.94a4.695 4.695 0 0 1-1.98-.807c-.89-.63-2.24-.844-3.28-.522-.69.214-1.42.265-2.14.15-2.57-.412-4.34-2.852-3.94-5.439.43-2.784 2.04-4.21 3.33-5.355v-.001l.28-.246c.42-.373 1.04-.806 1.74-1.24a5.954 5.954 0 0 1 4.59-1.177 5.949 5.949 0 0 1 4.31 3.052Z" clip-rule="evenodd"/>
</svg>