<svg xmlns="http://www.w3.org/2000/svg" width="15" height="14" viewBox="0 0 15 14" fill="none">
  <path fill-rule="evenodd" clip-rule="evenodd" d="M9.65703 2.28069C9.65703 3.54028 8.63593 4.56137 7.37634 4.56137C6.11675 4.56137 5.09566 3.54028 5.09566 2.28069C5.09566 1.0211 6.11675 0 7.37634 0C8.63593 0 9.65703 1.0211 9.65703 2.28069ZM2.06966 3.03349C3.21276 3.03349 4.13973 3.96026 4.13973 5.10315C4.13973 6.24686 3.21296 7.17322 2.06966 7.17322C0.926357 7.17322 0 6.24686 0 5.10315C0 3.96026 0.926561 3.03349 2.06966 3.03349ZM10.3244 5.50745C10.3244 4.36455 11.2512 3.43779 12.3941 3.43779C13.5374 3.43779 14.4639 4.36455 14.4639 5.50745C14.4639 6.65116 13.5372 7.57711 12.3941 7.57711C11.2512 7.57711 10.3244 6.65116 10.3244 5.50745ZM9.93278 7.21342C10.1667 7.42874 10.3703 7.63405 10.5142 7.8114L10.6481 7.97508L10.6493 7.97652C11.2734 8.73773 12.05 9.68492 12.0443 11.2915C12.0386 12.7846 10.823 13.9998 9.335 13.9998C8.92178 14.0008 8.51391 13.9063 8.14325 13.7237C7.58564 13.4489 6.81096 13.4487 6.25339 13.7235C5.88285 13.9061 5.47511 14.0007 5.062 13.9998C3.57338 13.9998 2.35763 12.7844 2.35212 11.2915C2.34641 9.68437 3.12334 8.73707 3.74776 7.97573L3.74829 7.97508L3.88217 7.81161C4.08218 7.56466 4.39647 7.26445 4.74995 6.95688C5.37222 6.29605 6.25266 5.88134 7.23208 5.88134C8.33252 5.88134 9.30868 6.40462 9.93278 7.21342Z" fill="#FFFDF2"/>
</svg>