<svg xmlns="http://www.w3.org/2000/svg" width="20" height="20" viewBox="0 0 20 20" fill="none">
  <g clip-path="url(#clip0_1813_22655)">
    <path fill-rule="evenodd" clip-rule="evenodd" d="M16.2188 7.27399C16.2188 12.217 10.3858 17.5 10.3858 17.5C10.3858 17.5 4.55078 12.542 4.55078 7.27399C4.55078 4.17699 7.16278 1.66699 10.3848 1.66699C13.6058 1.66699 16.2178 4.17699 16.2178 7.27399H16.2188Z" stroke="#737373" stroke-width="2" stroke-linecap="round" stroke-linejoin="round"/>
    <path fill-rule="evenodd" clip-rule="evenodd" d="M12.6284 7.91698C12.6345 8.19443 12.585 8.47029 12.483 8.72836C12.3809 8.98644 12.2284 9.22154 12.0342 9.41986C11.8401 9.61819 11.6084 9.77574 11.3525 9.88329C11.0967 9.99083 10.822 10.0462 10.5444 10.0461C10.2669 10.0461 9.99221 9.99056 9.73643 9.8829C9.48065 9.77523 9.24895 9.61757 9.05493 9.41915C8.8609 9.22073 8.70846 8.98556 8.60655 8.72743C8.50463 8.46931 8.4553 8.19342 8.46145 7.91598C8.47338 7.3713 8.69813 6.85296 9.08757 6.47196C9.477 6.09097 10.0001 5.87762 10.5449 5.87762C11.0898 5.87762 11.6129 6.09097 12.0023 6.47196C12.3918 6.85296 12.6165 7.3723 12.6284 7.91698Z" stroke="#737373" stroke-width="2" stroke-linecap="round" stroke-linejoin="round"/>
  </g>
  <defs>
    <clipPath id="clip0_1813_22655">
      <rect width="20" height="20" fill="white"/>
    </clipPath>
  </defs>
</svg>