<?xml version="1.0" encoding="UTF-8"?>
<svg id="Layer_1" data-name="Layer 1" xmlns="http://www.w3.org/2000/svg" viewBox="0 0 341.39 100.12">
  <defs>
    <style>
      .cls-1 {
        fill: #fe834d;
        stroke-width: 0px;
      }
    </style>
  </defs>
  <g>
    <path class="cls-1" d="m64.03,47.84c6.4-4.64,10.56-12.17,10.56-20.67v-1.65c0-14.09-11.42-25.52-25.52-25.52H11.46C5.13,0,0,5.13,0,11.46v78.3c0,5.72,4.64,10.36,10.36,10.36h17.71v-26.66l18.45-13.05,18.82,13.05v24.58c9.7-4.07,16.52-13.66,16.52-24.84h0c0-11.68-7.44-21.62-17.83-25.35ZM18.29,16.36h27.22c5.96,0,10.79,4.83,10.79,10.79v.42c0,5.96-4.83,10.79-10.79,10.79h-27.22v-22Z"/>
    <rect class="cls-1" x="40.73" y="83.01" width="11.95" height="17.11"/>
  </g>
  <g>
    <path class="cls-1" d="m112.78,96.98c-1.27,0-2.26-.16-2.98-.47-.72-.31-1.27-.78-1.63-1.3-.41-.62-.63-1.3-.72-2.08-.14-.83-.18-1.77-.18-2.7v-33.6c0-1.14.09-2.18.27-3.02s.45-1.51.9-2.03c.41-.52.95-.88,1.67-1.14.68-.21,1.54-.31,2.62-.31h9.63c1.81,0,3.52.21,5.06.62,1.54.47,2.85,1.14,3.98,2.08,1.08.99,1.9,2.24,2.53,3.69.59,1.56.9,3.38.9,5.46,0,1.56-.09,2.86-.23,3.95-.18,1.14-.45,2.08-.72,2.91-.36.88-.77,1.61-1.22,2.24-.54.68-1.13,1.3-1.76,1.82.9.47,1.67.99,2.35,1.56.63.62,1.13,1.35,1.58,2.18.41.88.72,1.87.95,2.96.18,1.14.27,2.5.27,4.01,0,2.29-.32,4.26-.9,5.93-.63,1.66-1.49,3.02-2.58,4.11-1.17,1.04-2.53,1.82-4.11,2.34-1.63.52-3.39.78-5.38.78h-10.3Zm2.71-38.49v11.13h6.33c1.58,0,2.76-.52,3.48-1.56.68-1.04,1.04-2.45,1.04-4.32,0-3.48-1.54-5.25-4.61-5.25h-6.24Zm0,19.14v11.18h6.96c3.34,0,5.02-1.87,5.02-5.67,0-1.87-.45-3.22-1.27-4.16-.9-.88-2.12-1.35-3.75-1.35h-6.96Z"/>
    <path class="cls-1" d="m166.65,50.33c.59,0,1.04.16,1.36.36.27.31.5.73.59,1.3l5.15,35.37h.86l5.11-35.63c.09-.57.23-.94.45-1.14.18-.16.59-.26,1.27-.26h4.88c.54,0,.95.16,1.13.42.14.31.18.78.09,1.4l-6.42,42.85c-.14.78-.36,1.3-.63,1.61-.32.21-.86.36-1.63.36h-8.72c-.81,0-1.36-.16-1.63-.36-.32-.31-.54-.83-.63-1.61l-4.38-30.95-4.34,30.95c-.13.78-.36,1.3-.63,1.61-.32.21-.86.36-1.63.36h-8.72c-.81,0-1.36-.16-1.63-.36-.32-.31-.54-.83-.63-1.61l-6.42-42.85c-.09-.62-.04-1.09.14-1.4.14-.26.5-.42,1.08-.42h4.88c.63,0,1.08.1,1.31.26.18.21.32.57.41,1.14l5.11,35.63h.86l5.15-35.37c.09-.57.27-.99.59-1.3.27-.21.72-.36,1.36-.36h6.28Z"/>
    <path class="cls-1" d="m193.59,96.98c-.45,0-.72-.1-.9-.26-.18-.21-.27-.52-.27-1.04v-44.05c0-.52.09-.83.27-1.04.18-.16.45-.26.9-.26h6.33c.41,0,.72.1.9.26.18.21.27.52.27,1.04v44.05c0,.52-.09.83-.27,1.04-.18.16-.5.26-.9.26h-6.33Z"/>
    <path class="cls-1" d="m205.8,51.63c0-.52.09-.83.27-1.04.18-.16.45-.26.9-.26h27.03c.41,0,.72.1.9.26.18.21.27.52.27,1.04v6.09c0,.52-.09.88-.27,1.04-.18.21-.5.26-.9.26h-9.17v36.67c0,.52-.09.83-.27,1.04-.18.16-.5.26-.9.26h-6.33c-.45,0-.72-.1-.9-.26-.18-.21-.27-.52-.27-1.04v-36.67h-9.17c-.45,0-.72-.05-.9-.26-.18-.16-.27-.52-.27-1.04v-6.09Z"/>
    <path class="cls-1" d="m263.51,96.98c-.45,0-.72-.1-.9-.26-.18-.21-.27-.52-.27-1.04v-18.1h-13.65v18.1c0,.52-.09.83-.27,1.04-.18.16-.5.26-.9.26h-6.37c-.45,0-.72-.1-.9-.26-.18-.21-.27-.52-.27-1.04v-44.05c0-.52.09-.83.27-1.04.18-.16.45-.26.9-.26h6.37c.41,0,.72.1.9.26.18.21.27.52.27,1.04v17.32h13.65v-17.32c0-.52.09-.83.27-1.04.18-.16.45-.26.9-.26h6.37c.41,0,.72.1.9.26.18.21.27.52.27,1.04v44.05c0,.52-.09.83-.27,1.04-.18.16-.5.26-.9.26h-6.37Z"/>
    <path class="cls-1" d="m287.52,69.68h14.6c.41,0,.72.1.9.26.18.21.27.52.27,1.04v6.24c0,.52-.09.88-.27,1.04-.18.21-.5.26-.9.26h-14.6v7.02c0,1.04.14,1.72.45,2.03.27.42.86.57,1.67.57h14.19c.41,0,.72.1.9.26.18.21.27.52.27,1.04v6.24c0,.52-.09.83-.27,1.04-.18.16-.5.26-.9.26h-19.03c-1.27,0-2.26-.16-2.98-.47-.72-.31-1.27-.78-1.63-1.3-.41-.62-.63-1.3-.72-2.08-.14-.83-.18-1.77-.18-2.7v-33.54c0-.94.04-1.87.18-2.7.09-.78.32-1.46.72-2.08.36-.52.9-.99,1.63-1.3.72-.31,1.72-.47,2.98-.47h19.03c.41,0,.72.1.9.26.18.21.27.52.27,1.04v6.24c0,.52-.09.88-.27,1.04-.18.21-.5.26-.9.26h-14.19c-.81,0-1.4.21-1.67.52-.32.42-.45,1.09-.45,2.08v7.91Z"/>
    <path class="cls-1" d="m327.65,81.9h-7.64v13.78c0,.52-.09.83-.27,1.04-.18.16-.5.26-.9.26h-5.88c-.45,0-.72-.1-.9-.26-.18-.21-.27-.52-.27-1.04v-38.8c0-.94.04-1.87.18-2.7.09-.78.32-1.46.72-2.08.36-.52.9-.99,1.63-1.3.72-.31,1.72-.47,2.98-.47h9.99c4.79,0,8.32,1.2,10.67,3.59,2.26,2.44,3.44,6.4,3.44,11.91,0,3.43-.54,6.19-1.54,8.22-1.08,2.08-2.53,3.8-4.34,5.1l5.06,15.86c.23.73.23,1.25-.05,1.56-.27.26-.77.42-1.49.42h-5.11c-.72,0-1.17-.16-1.45-.36-.32-.31-.59-.83-.77-1.61l-4.07-13.11Zm5.47-15.97c0-4.47-1.94-6.76-5.83-6.76h-5.15c-.81,0-1.4.21-1.67.52-.32.42-.45,1.09-.45,2.08v11.29h7.41c1.99,0,3.48-.62,4.38-1.98.86-1.3,1.31-3.02,1.31-5.15Z"/>
  </g>
</svg>