<svg xmlns="http://www.w3.org/2000/svg" width="10" height="16" viewBox="0 0 10 16" fill="none">
  <path fill-rule="evenodd" clip-rule="evenodd" d="M5.70775 0.809974L5.70906 0.808669L5.00195 0.101562L5.00065 0.102868L4.99934 0.101562L4.29224 0.808669L4.29354 0.809974L0.00195312 5.10156L0.70906 5.80867L4.50061 2.01712V9.02714C2.83024 9.26939 1.54712 10.7072 1.54712 12.4447C1.54712 14.352 3.0933 15.8982 5.00061 15.8982C6.90792 15.8982 8.4541 14.352 8.4541 12.4447C8.4541 10.7072 7.17098 9.26939 5.50061 9.02714V2.01704L9.29224 5.80867L9.99934 5.10156L5.70775 0.809974ZM7.4541 12.4447C7.4541 13.7997 6.35564 14.8982 5.00061 14.8982C3.64558 14.8982 2.54712 13.7997 2.54712 12.4447C2.54712 11.0897 3.64558 9.99121 5.00061 9.99121C6.35564 9.99121 7.4541 11.0897 7.4541 12.4447Z" fill="#4270F8"/>
</svg>