<svg xmlns="http://www.w3.org/2000/svg" width="18" height="16" viewBox="0 0 18 16" fill="none">
  <path fill-rule="evenodd" clip-rule="evenodd" d="M8.44635 2.84676C8.44635 4.41898 7.50827 5.69351 6.3511 5.69351C5.19392 5.69351 4.25585 4.41898 4.25585 2.84676C4.25585 1.27454 5.19392 0 6.3511 0C7.50827 0 8.44635 1.27454 8.44635 2.84676ZM9.02836 6.7733C13.6198 6.7733 16.8801 12.0339 15.7155 15.3906C15.4122 16.2647 14.628 15.9164 13.4255 15.3823C12.3056 14.885 10.823 14.2266 9.02836 14.2442C7.3119 14.2611 5.88581 14.9153 4.78526 15.4202C3.52697 15.9975 2.69421 16.3796 2.33952 15.3906C1.0019 11.6609 4.43695 6.7733 9.02836 6.7733ZM11.6492 5.69351C12.8063 5.69351 13.7444 4.41898 13.7444 2.84676C13.7444 1.27454 12.8063 0 11.6492 0C10.492 0 9.55392 1.27454 9.55392 2.84676C9.55392 4.41898 10.492 5.69351 11.6492 5.69351ZM3.41204 4.99115C4.23228 5.98725 4.27812 7.3241 3.51443 7.9771C2.75074 8.63009 1.46671 8.35194 0.64647 7.35584C-0.17377 6.35974 -0.219613 5.02288 0.544078 4.36989C1.30777 3.7169 2.5918 3.99505 3.41204 4.99115ZM14.4856 7.97712C15.2493 8.63011 16.5333 8.35197 17.3535 7.35586C18.1738 6.35976 18.2196 5.02291 17.4559 4.36992C16.6922 3.71693 15.4082 3.99508 14.588 4.99118C13.7677 5.98728 13.7219 7.32413 14.4856 7.97712Z" fill="#F87B45"/>
</svg>