<svg xmlns="http://www.w3.org/2000/svg" width="106" height="59" viewBox="0 0 106 59" fill="none">
  <path d="M0.636719 43.7384L5.17687 10.4439C18.192 -3.78228 86.8996 -3.17704 100.823 10.4439L105.363 43.7384C95.3745 61.5959 13.3491 64.6226 0.636719 43.7384Z" fill="#F4F4F4"/>
  <ellipse cx="53.3029" cy="12.562" rx="39.9533" ry="7.56692" fill="#D9D9D9"/>
  <path fill-rule="evenodd" clip-rule="evenodd" d="M56.2344 33.2581C56.2344 34.8251 54.9642 36.0954 53.3972 36.0954C51.8302 36.0954 50.5599 34.8251 50.5599 33.2581C50.5599 31.6912 51.8302 30.4209 53.3972 30.4209C54.9642 30.4209 56.2344 31.6912 56.2344 33.2581ZM46.7974 34.1949C48.2194 34.1949 49.3726 35.3478 49.3726 36.7696C49.3726 38.1924 48.2197 39.3448 46.7974 39.3448C45.3751 39.3448 44.2227 38.1924 44.2227 36.7696C44.2227 35.3478 45.3753 34.1949 46.7974 34.1949ZM57.0666 37.2726C57.0666 35.8508 58.2195 34.6979 59.6413 34.6979C61.0636 34.6979 62.2162 35.8508 62.2162 37.2726C62.2162 38.6954 61.0633 39.8473 59.6413 39.8473C58.2195 39.8473 57.0666 38.6954 57.0666 37.2726ZM56.5793 39.3949C56.8703 39.6627 57.1237 39.9181 57.3027 40.1388L57.4692 40.3424L57.4707 40.3442C58.2471 41.2911 59.2132 42.4695 59.2061 44.4681C59.199 46.3256 57.6868 47.8373 55.8357 47.8373C55.3216 47.8386 54.8142 47.721 54.3531 47.4938C53.6594 47.152 52.6957 47.1517 52.0021 47.4936C51.5411 47.7208 51.0339 47.8384 50.5199 47.8373C48.6681 47.8373 47.1556 46.3254 47.1488 44.4681C47.1417 42.4688 48.1082 41.2903 48.885 40.3432L48.8856 40.3424L49.0522 40.139C49.301 39.8318 49.692 39.4583 50.1317 39.0757C50.9059 38.2536 52.0012 37.7377 53.2196 37.7377C54.5886 37.7377 55.8029 38.3887 56.5793 39.3949Z" fill="#D9D9D9"/>
</svg>