<svg width="14" height="14" viewBox="0 0 14 14" fill="none" xmlns="http://www.w3.org/2000/svg">
<g clip-path="url(#clip0_1_4520)">
<g clip-path="url(#clip1_1_4520)">
<path fill-rule="evenodd" clip-rule="evenodd" d="M7.05687 11.0966C7.02175 11.0772 6.97909 11.0772 6.94398 11.0966L3.39341 13.0593C3.30818 13.1064 3.20615 13.0345 3.22182 12.9384L3.90271 8.76427C3.90866 8.72772 3.89692 8.69054 3.87106 8.66402L0.982504 5.70349C0.916191 5.63551 0.95452 5.52102 1.04839 5.50667L5.03025 4.89829C5.06872 4.89242 5.10169 4.86776 5.11822 4.83253L6.89482 1.04756C6.93678 0.958104 7.06403 0.958104 7.10603 1.04756L8.88259 4.83253C8.89912 4.86776 8.93213 4.89242 8.97059 4.89829L12.9524 5.50667C13.0463 5.52102 13.0847 5.63551 13.0183 5.70349L10.1298 8.66402C10.1039 8.69054 10.0922 8.72772 10.0981 8.76427L10.779 12.9384C10.7947 13.0345 10.6927 13.1064 10.6074 13.0593L7.05687 11.0966Z" fill="#FFC01D"/>
</g>
</g>
<defs>
<clipPath id="clip0_1_4520">
<rect width="14" height="14" fill="white"/>
</clipPath>
<clipPath id="clip1_1_4520">
<rect width="14" height="14" fill="white"/>
</clipPath>
</defs>
</svg>
